<svg width="26" height="18" viewBox="0 0 26 18" fill="none" xmlns="http://www.w3.org/2000/svg">
<path d="M25.2478 3.62032H23.9895V2.3858C23.9895 1.99742 23.6065 1.6229 23.2372 1.6229H14.9627L15.1268 1.15129C15.2088 0.887741 15.1678 0.58258 15.0037 0.360645C14.8396 0.13871 14.5797 0 14.3062 0H9.60126C9.23198 0 8.91741 0.208065 8.76696 0.596451L8.46607 1.63677H0.752236C0.369279 1.63677 0 2.02516 0 2.41355V14.1761C0 14.5645 0.382956 14.939 0.752236 14.939H8.69858L8.35665 16.6868C8.28827 17.1029 8.5071 17.4913 8.89006 17.6438C8.99947 17.6855 9.10889 17.7132 9.21831 17.7132C9.49185 17.7132 9.76539 17.5745 9.94319 17.3248L11.516 14.939H23.2236C23.6065 14.939 23.9758 14.5506 23.9758 14.1622V12.2758H25.2341C25.617 12.2758 26 11.8874 26 11.5129V4.41096C26 4.02258 25.617 3.63419 25.2341 3.63419L25.2478 3.62032ZM1.3677 13.538V3.01H8.05576L6.53761 8.28096C6.4282 8.55838 6.46923 8.86354 6.63335 9.09934C6.79747 9.33515 7.05734 9.48773 7.35823 9.48773L9.77906 9.45999L8.9858 13.5519H1.3677V13.538ZM11.2288 9.08547C11.2699 8.83579 11.2015 8.57225 11.0373 8.36418C10.8732 8.16999 10.627 8.04515 10.3672 8.04515L8.01473 8.07289L9.95686 1.35935H13.5949L12.2683 5.27096C12.1862 5.53451 12.2272 5.83967 12.3914 6.0616C12.5555 6.28354 12.8154 6.42225 13.0889 6.42225L15.4824 6.44999L10.2031 14.4397L11.2425 9.0716L11.2288 9.08547ZM12.4324 13.538L17.1099 6.47773C17.3014 6.20031 17.3151 5.85354 17.1646 5.56225C17.0142 5.27096 16.7133 5.09064 16.3987 5.09064L13.7864 5.0629L14.484 3.01H22.6218V4.31387V11.5684V13.5242H12.4461L12.4324 13.538ZM24.6323 10.8887H23.9895V5.02128H24.6323V10.8887Z" fill="#9A9A9A"/>
<path d="M11.2269 9.37258C11.2679 9.1229 11.1995 8.85935 11.0354 8.65129C10.8713 8.4571 10.6251 8.33226 10.3652 8.33226L8.01279 8.36L9.95493 1.64646H13.593L12.2663 5.55807C12.1843 5.82162 12.2253 6.12678 12.3894 6.34871C12.5536 6.57065 12.8134 6.70936 13.087 6.70936L15.4804 6.7371L10.2011 14.7268L11.2406 9.35871L11.2269 9.37258Z" fill="#39B54A"/>
</svg>
