<svg width="18" height="18" viewBox="0 0 18 18" fill="none" xmlns="http://www.w3.org/2000/svg">
<path d="M13.125 17.0625H2.625C2.3175 17.0625 2.0625 16.8075 2.0625 16.5V3.75C2.0625 2.07 3.195 0.9375 4.875 0.9375H10.875C12.555 0.9375 13.6875 2.07 13.6875 3.75V16.5C13.6875 16.8075 13.4325 17.0625 13.125 17.0625ZM3.1875 15.9375H12.5625V3.75C12.5625 2.6925 11.9325 2.0625 10.875 2.0625H4.875C3.8175 2.0625 3.1875 2.6925 3.1875 3.75V15.9375Z" fill="#9A9A9A"/>
<path d="M14.25 17.0625H1.5C1.1925 17.0625 0.9375 16.8075 0.9375 16.5C0.9375 16.1925 1.1925 15.9375 1.5 15.9375H14.25C14.5575 15.9375 14.8125 16.1925 14.8125 16.5C14.8125 16.8075 14.5575 17.0625 14.25 17.0625Z" fill="#9A9A9A"/>
<path d="M9.45719 8.06267H6.28469C5.06219 8.06267 4.30469 7.30517 4.30469 6.08267V5.16018C4.30469 3.93768 5.06219 3.18018 6.28469 3.18018H9.45719C10.6797 3.18018 11.4372 3.93768 11.4372 5.16018V6.08267C11.4372 7.30517 10.6797 8.06267 9.45719 8.06267Z" fill="#39B54A"/>
<path d="M7.125 10.3125H4.875C4.5675 10.3125 4.3125 10.0575 4.3125 9.75C4.3125 9.4425 4.5675 9.1875 4.875 9.1875H7.125C7.4325 9.1875 7.6875 9.4425 7.6875 9.75C7.6875 10.0575 7.4325 10.3125 7.125 10.3125Z" fill="#9A9A9A"/>
<path d="M13.125 12.5701C12.8175 12.5701 12.5625 12.3226 12.5625 12.0076C12.5625 11.7001 12.81 11.4451 13.125 11.4451L15.9375 11.4376V7.84513L14.745 7.25263C14.4675 7.11013 14.355 6.77263 14.49 6.49513C14.6325 6.21763 14.97 6.10513 15.2475 6.24013L16.7475 6.99013C16.935 7.08763 17.055 7.28263 17.055 7.49263V11.9926C17.055 12.3001 16.8075 12.5551 16.4925 12.5551L13.125 12.5701Z" fill="#9A9A9A"/>
</svg>
