<svg width="22" height="20" viewBox="0 0 22 20" fill="none" xmlns="http://www.w3.org/2000/svg">
<path fill-rule="evenodd" clip-rule="evenodd" d="M9.79888 17.4709C9.57614 17.2594 9.3981 17.0052 9.27505 16.7232C9.15199 16.4411 9.08636 16.1366 9.08196 15.8274C9.07711 15.4922 9.14353 15.1589 9.2768 14.8495C9.41008 14.5401 9.60717 14.2617 9.85501 14.0327L10.8175 5.83216C10.8299 5.72303 10.8816 5.62163 10.9628 5.54689C11.044 5.47216 11.1493 5.4292 11.2589 5.42603C11.3685 5.42277 11.4751 5.45931 11.559 5.52891C11.6428 5.59851 11.6983 5.69647 11.7151 5.80467L12.9525 13.9397C13.2082 14.1532 13.4147 14.4194 13.5583 14.7205C13.7019 15.0216 13.7793 15.3507 13.7854 15.6859C13.7917 15.995 13.7366 16.303 13.6233 16.5922C13.5099 16.8813 13.3407 17.1459 13.1253 17.3705C12.9111 17.5961 12.6548 17.7776 12.3713 17.9044C12.0878 18.0311 11.7827 18.1007 11.4737 18.1091C11.1648 18.1194 10.8577 18.0683 10.5702 17.9588C10.2827 17.8492 10.0205 17.6834 9.79888 17.4709Z" fill="#39B54A"/>
<path fill-rule="evenodd" clip-rule="evenodd" d="M17.8677 18.0757L18.312 18.5224C20.1236 16.6382 21.1342 14.1251 21.1313 11.5113C21.1313 8.80509 20.0775 6.26138 18.1639 4.34744C16.2505 2.43391 13.7063 1.38005 11.0001 1.38005C8.29414 1.38005 5.75016 2.43391 3.83621 4.34744C1.92269 6.26138 0.868964 8.80509 0.868964 11.5113C0.867424 12.8299 1.1246 14.136 1.62593 15.3555C2.09681 16.5054 2.77641 17.5582 3.6304 18.4608L4.07968 18.0192C3.28276 17.1746 2.64814 16.1905 2.20753 15.1161C1.73929 13.975 1.50164 12.7623 1.50164 11.5113C1.50164 8.97423 2.48989 6.589 4.28383 4.79506C6.07805 3.00112 8.46314 2.01272 11.0002 2.01272C13.5378 2.01272 15.9229 3.00098 17.7169 4.79506C19.5111 6.589 20.4986 8.97423 20.4986 11.5113C20.4988 12.7743 20.2559 13.9991 19.7774 15.1518C19.328 16.2365 18.6803 17.2281 17.8677 18.0757ZM18.3129 19.0828H18.3123C18.2508 19.0826 18.1919 19.058 18.1486 19.0144L17.3786 18.24C17.3353 18.1965 17.3111 18.1376 17.3113 18.0762C17.3114 18.0149 17.3359 17.9561 17.3794 17.9128C18.2242 17.0733 18.8939 16.0746 19.3498 14.9743C19.8052 13.8781 20.0359 12.713 20.0359 11.5113C20.0361 9.09755 19.0964 6.82845 17.3895 5.12226C15.6829 3.41552 13.4137 2.47529 11.0001 2.47529C8.58661 2.47529 6.31736 3.41552 4.61104 5.12226C2.90443 6.82845 1.96421 9.09755 1.96421 11.5113C1.96435 12.7015 2.19023 13.855 2.6355 14.9401C3.08293 16.031 3.74006 17.0235 4.56965 17.8613C4.61262 17.9051 4.63649 17.9641 4.63605 18.0254C4.63561 18.0867 4.61089 18.1454 4.5673 18.1885L3.78818 18.9541C3.76658 18.9754 3.74098 18.9922 3.71286 19.0036C3.68474 19.015 3.65465 19.0208 3.6243 19.0206C3.59396 19.0204 3.56395 19.0142 3.536 19.0024C3.50804 18.9905 3.48269 18.9733 3.4614 18.9517C2.4903 17.9705 1.72115 16.8084 1.19755 15.531C0.673495 14.2557 0.404656 12.8901 0.406257 11.5113C0.406257 8.68177 1.50828 6.02138 3.50901 4.02023C5.51043 2.01951 8.17068 0.91748 11.0001 0.91748C13.8302 0.91748 16.49 2.01951 18.4911 4.02023C20.4919 6.02138 21.5939 8.68177 21.5939 11.5113C21.5939 12.9159 21.3226 14.2814 20.7867 15.5714C20.2506 16.8634 19.4726 18.0217 18.4762 19.0154C18.4327 19.0585 18.3741 19.0827 18.3129 19.0828Z" fill="#9A9A9A"/>
<path fill-rule="evenodd" clip-rule="evenodd" d="M11.0003 4.19827C10.939 4.19827 10.8802 4.17393 10.8368 4.13059C10.7934 4.08724 10.769 4.02845 10.7689 3.96712V2.23519C10.7689 2.17385 10.7933 2.11502 10.8367 2.07165C10.88 2.02827 10.9389 2.00391 11.0002 2.00391C11.0616 2.00391 11.1204 2.02827 11.1638 2.07165C11.2071 2.11502 11.2315 2.17385 11.2315 2.23519V3.96699C11.2315 4.09474 11.1278 4.19841 11.0003 4.19827ZM5.73105 6.38114C5.70062 6.38119 5.67047 6.37522 5.64235 6.36358C5.61423 6.35194 5.58868 6.33486 5.56718 6.31332L4.34279 5.08867C4.29952 5.04521 4.27522 4.98639 4.27522 4.92506C4.27522 4.86374 4.29952 4.80491 4.34279 4.76146C4.38624 4.71823 4.44504 4.69396 4.50633 4.69396C4.56762 4.69396 4.62641 4.71823 4.66986 4.76146L5.89438 5.98584C5.91592 6.00729 5.93302 6.03279 5.94468 6.06086C5.95635 6.08894 5.96235 6.11904 5.96235 6.14945C5.96235 6.17985 5.95635 6.20995 5.94468 6.23803C5.93302 6.2661 5.91592 6.2916 5.89438 6.31305C5.84953 6.35845 5.79029 6.38101 5.73105 6.38101V6.38114ZM3.54832 11.6503H1.81625C1.75491 11.6503 1.69608 11.6259 1.6527 11.5826C1.60933 11.5392 1.58496 11.4804 1.58496 11.419C1.58496 11.3577 1.60933 11.2988 1.6527 11.2555C1.69608 11.2121 1.75491 11.1877 1.81625 11.1877H3.54804C3.60938 11.1877 3.66821 11.2121 3.71158 11.2555C3.75496 11.2988 3.77932 11.3577 3.77932 11.419C3.77932 11.4804 3.75496 11.5392 3.71158 11.5826C3.66821 11.6259 3.60938 11.6503 3.54804 11.6503H3.54832Z" fill="#9A9A9A"/>
<path fill-rule="evenodd" clip-rule="evenodd" d="M3.54832 11.6506H1.81625C1.75491 11.6506 1.69608 11.6262 1.6527 11.5828C1.60933 11.5394 1.58496 11.4806 1.58496 11.4193C1.58496 11.3579 1.60933 11.2991 1.6527 11.2557C1.69608 11.2124 1.75491 11.188 1.81625 11.188H3.54804C3.60938 11.188 3.66821 11.2124 3.71158 11.2557C3.75496 11.2991 3.77932 11.3579 3.77932 11.4193C3.77932 11.4806 3.75496 11.5394 3.71158 11.5828C3.66821 11.6262 3.60938 11.6506 3.54804 11.6506H3.54832ZM4.50667 18.1446C4.47624 18.1447 4.44609 18.1387 4.41797 18.1271C4.38985 18.1154 4.3643 18.0984 4.34279 18.0768C4.29951 18.0334 4.27521 17.9745 4.27521 17.9132C4.27521 17.8518 4.29951 17.793 4.34279 17.7495L5.56718 16.5251C5.61061 16.4818 5.66944 16.4575 5.73078 16.4575C5.79211 16.4575 5.85095 16.4818 5.89438 16.5251C5.98504 16.6152 5.9849 16.7618 5.89438 16.8523L4.67 18.0767C4.62488 18.1219 4.56536 18.1446 4.50667 18.1446ZM17.4944 18.1446C17.464 18.1447 17.4338 18.1387 17.4057 18.1271C17.3775 18.1155 17.3519 18.0984 17.3304 18.0768L16.106 16.8523C16.0628 16.8089 16.0385 16.75 16.0385 16.6887C16.0385 16.6274 16.0628 16.5686 16.106 16.5251C16.1495 16.4818 16.2083 16.4575 16.2696 16.4575C16.331 16.4575 16.3898 16.4818 16.4332 16.5251L17.6578 17.7495C17.6793 17.7709 17.6964 17.7964 17.708 17.8245C17.7197 17.8526 17.7257 17.8827 17.7257 17.9131C17.7257 17.9435 17.7196 17.9736 17.708 18.0017C17.6963 18.0298 17.6792 18.0552 17.6576 18.0767C17.6128 18.1219 17.5535 18.1446 17.4944 18.1446ZM20.1842 11.6506H18.4522C18.3249 11.6506 18.2211 11.547 18.2211 11.4194C18.2211 11.3581 18.2454 11.2993 18.2888 11.2559C18.3321 11.2125 18.3909 11.1881 18.4522 11.188H20.1842C20.2455 11.188 20.3043 11.2124 20.3477 11.2557C20.3911 11.2991 20.4155 11.3579 20.4155 11.4193C20.4155 11.4806 20.3911 11.5394 20.3477 11.5828C20.3043 11.6262 20.2455 11.6506 20.1842 11.6506Z" fill="#9A9A9A"/>
<path fill-rule="evenodd" clip-rule="evenodd" d="M20.1841 11.6507H18.4522C18.3908 11.6507 18.332 11.6263 18.2886 11.5829C18.2453 11.5395 18.2209 11.4807 18.2209 11.4194C18.2209 11.358 18.2453 11.2992 18.2886 11.2558C18.332 11.2125 18.3908 11.1881 18.4522 11.1881H20.1841C20.2454 11.1881 20.3043 11.2125 20.3476 11.2558C20.391 11.2992 20.4154 11.358 20.4154 11.4194C20.4154 11.4807 20.391 11.5395 20.3476 11.5829C20.3043 11.6263 20.2454 11.6507 20.1841 11.6507ZM16.2698 6.38151C16.224 6.38158 16.1792 6.36804 16.1411 6.34263C16.103 6.31721 16.0733 6.28106 16.0557 6.23874C16.0382 6.19642 16.0336 6.14985 16.0425 6.10492C16.0515 6.05999 16.0736 6.01872 16.106 5.98635L17.3303 4.76196C17.3738 4.71866 17.4326 4.69434 17.4939 4.69434C17.5553 4.69434 17.6141 4.71866 17.6576 4.76196C17.7482 4.85262 17.7481 4.99865 17.6576 5.08917L16.433 6.31355C16.3878 6.35895 16.3285 6.38151 16.2698 6.38151Z" fill="#9A9A9A"/>
<path fill-rule="evenodd" clip-rule="evenodd" d="M11.0642 2.0127C13.5779 2.02917 15.9381 3.0159 17.7171 4.79475C19.5113 6.58883 20.4988 8.97406 20.4988 11.511C20.4988 12.774 20.2559 13.9989 19.7774 15.1515C19.328 16.2362 18.6805 17.2278 17.8681 18.0754L18.3124 18.5222C20.1239 16.638 21.1345 14.1248 21.1315 11.511C21.1315 8.80492 20.0776 6.26108 18.1643 4.34713C16.2509 2.43374 13.7065 1.37988 11.0003 1.37988C8.29433 1.37988 5.75034 2.43374 3.8364 4.34713C1.92301 6.26108 0.869147 8.80492 0.869147 11.511C0.867633 12.8296 1.12486 14.1358 1.62625 15.3553C2.09715 16.5052 2.77675 17.5579 3.63072 18.4605L4.07986 18.0191C3.28295 17.1744 2.64832 16.1903 2.20772 15.1159C1.73947 13.9748 1.50182 12.7619 1.50182 11.511C1.50182 8.97392 2.49007 6.58883 4.28415 4.79489C6.06329 3.0159 8.42333 2.02903 10.9366 2.01283C10.9782 2.00089 11.0224 2.00089 11.0641 2.01283L11.0642 2.0127Z" fill="#9A9A9A"/>
</svg>
